:FULLY-SPECIFIED
:FORCE-ALL-JOINTS-BE-3DOF
:DEGREES
102
root 7.42043 16.7277 -26.7246 2.40093 11.5376 -3.34355
lfemur -24.9367 -1.36439 -12.4876
ltibia 38.1808 0 0
lfoot -17.4617 -6.60696 0
ltoes 24.4012 0 0
rfemur -38.4359 -4.7606 3.19534
rtibia 83.2992 0 0
rfoot 27.4594 18.5295 0
rtoes 16.2193 0 0
lowerback 2.5754 1.38448 0.0316239
upperback -0.451824 1.86917 1.92309
thorax -1.94597 0.946653 1.90272
lowerneck -10.6022 -4.73087 2.27108
upperneck -0.922363 -6.56164 0.87867
head 1.45053 -3.24898 -0.393138
lclavicle -9.23285e-15 -5.128e-17 0
lhumerus -46.3578 -10.465 93.7804
lradius 48.831 0 0
lwrist 14.6409 0 0
lhand 6.66982 8.41197 0
lfingers 7.12502 0 0
lthumb 31.9509 35.5253 0
rclavicle -9.23285e-15 -5.128e-17 0
rhumerus -42.2813 1.40097 -71.0203
rradius 49.956 0 0
rwrist 4.16355 0 0
rhand -22.1396 -16.2737 0
rfingers 7.12502 0 0
rthumb 4.27401 -46.2105 0
103
root 7.46638 16.7292 -26.6925 2.06381 11.8485 -3.21444
lfemur -24.3923 -1.82351 -12.5988
ltibia 37.8548 0 0
lfoot -17.4061 -7.07779 0
ltoes 24.5931 0 0
rfemur -39.5951 -4.75693 2.32674
rtibia 85.7664 0 0
rfoot 29.9207 20.0165 0
rtoes 17.2852 0 0
lowerback 2.81635 1.27924 -0.113777
upperback -0.387554 1.73313 1.97647
thorax -2.02619 0.88003 2.02984
lowerneck -10.6141 -4.77455 2.22678
upperneck -0.740952 -6.61882 0.8553
head 1.51069 -3.27505 -0.399017
lclavicle -9.77098e-15 -7.76013e-16 0
lhumerus -46.4933 -10.5657 93.879
lradius 48.997 0 0
lwrist 14.8595 0 0
lhand 7.36205 8.66041 0
lfingers 7.12502 0 0
lthumb 32.6138 35.6784 0
rclavicle -9.77098e-15 -7.76013e-16 0
rhumerus -42.485 1.33369 -70.2545
rradius 50.1788 0 0
rwrist 4.0414 0 0
rhand -22.1371 -16.0969 0
rfingers 7.12502 0 0
rthumb 4.27642 -46.0336 0
104
root 7.50107 16.7303 -26.6683 1.80936 12.0831 -3.11699
lfemur -23.9814 -2.17003 -12.6828
ltibia 37.6088 0 0
lfoot -17.3642 -7.43315 0
ltoes 24.7379 0 0
rfemur -40.4701 -4.75417 1.67115
rtibia 87.6286 0 0
rfoot 31.7783 21.1389 0
rtoes 18.0896 0 0
lowerback 2.99821 1.19981 -0.223521
upperback -0.339044 1.63046 2.01676
thorax -2.08674 0.829744 2.12579
lowerneck -10.6231 -4.80751 2.19334
upperneck -0.604029 -6.66197 0.837662
head 1.55609 -3.29473 -0.403454
lclavicle -1.01772e-14 -1.32302e-15 0
lhumerus -46.5955 -10.6417 93.9534
lradius 49.1222 0 0
lwrist 15.0246 0 0
lhand 7.88453 8.84792 0
lfingers 7.12502 0 0
lthumb 33.1141 35.7939 0
rclavicle -1.01772e-14 -1.32302e-15 0
rhumerus -42.6388 1.28291 -69.6765
rradius 50.3471 0 0
rwrist 3.94921 0 0
rhand -22.1352 -15.9634 0
rfingers 7.12502 0 0
rthumb 4.27824 -45.9001 0
105
root 7.52298 16.7311 -26.653 1.64861 12.2313 -3.05543
lfemur -23.7218 -2.38896 -12.7358
ltibia 37.4534 0 0
lfoot -17.3377 -7.65766 0
ltoes 24.8294 0 0
rfemur -41.0229 -4.75242 1.25696
rtibia 88.805 0 0
rfoot 32.9519 21.8479 0
rtoes 18.5978 0 0
lowerback 3.1131 1.14962 -0.292854
upperback -0.308398 1.56559 2.04221
thorax -2.125 0.797976 2.18641
lowerneck -10.6287 -4.82834 2.17221
upperneck -0.517525 -6.68924 0.826518
head 1.58477 -3.30716 -0.406258
lclavicle -1.04338e-14 -1.6686e-15 0
lhumerus -46.6601 -10.6897 94.0004
lradius 49.2013 0 0
lwrist 15.1289 0 0
lhand 8.21461 8.96639 0
lfingers 7.12502 0 0
lthumb 33.4302 35.8669 0
rclavicle -1.04338e-14 -1.6686e-15 0
rhumerus -42.7359 1.25083 -69.3114
rradius 50.4534 0 0
rwrist 3.89097 0 0
rhand -22.134 -15.8791 0
rfingers 7.12502 0 0
rthumb 4.27939 -45.8158 0
106
root 7.53062 16.7313 -26.6477 1.59258 12.283 -3.03397
lfemur -23.6313 -2.46527 -12.7543
ltibia 37.3992 0 0
lfoot -17.3285 -7.73592 0
ltoes 24.8613 0 0
rfemur -41.2156 -4.75181 1.11259
rtibia 89.2151 0 0
rfoot 33.361 22.0951 0
rtoes 18.775 0 0
lowerback 3.15315 1.13213 -0.317021
upperback -0.297715 1.54298 2.05108
thorax -2.13833 0.786902 2.20754
lowerneck -10.6307 -4.8356 2.16485
upperneck -0.487372 -6.69874 0.822634
head 1.59477 -3.31149 -0.407235
lclavicle -1.05232e-14 -1.78906e-15 0
lhumerus -46.6826 -10.7064 94.0168
lradius 49.2289 0 0
lwrist 15.1652 0 0
lhand 8.32967 9.00768 0
lfingers 7.12502 0 0
lthumb 33.5404 35.8923 0
rclavicle -1.05232e-14 -1.78906e-15 0
rhumerus -42.7698 1.23965 -69.1841
rradius 50.4904 0 0
rwrist 3.87067 0 0
rhand -22.1336 -15.8497 0
rfingers 7.12502 0 0
rthumb 4.27979 -45.7864 0
107
root 7.5338 16.7322 -26.6463 1.51653 12.2543 -3.00123
lfemur -23.5033 -2.38457 -12.7971
ltibia 37.3473 0 0
lfoot -17.3106 -7.75199 0
ltoes 24.9038 0 0
rfemur -41.4548 -4.87974 1.32507
rtibia 88.9449 0 0
rfoot 33.1413 22.0937 0
rtoes 18.4339 0 0
lowerback 3.23304 1.11356 -0.346561
upperback -0.262067 1.51379 2.04154
thorax -2.14303 0.772126 2.21831
lowerneck -10.6418 -4.81296 2.15661
upperneck -0.475344 -6.66823 0.8267
head 1.60122 -3.29604 -0.40335
lclavicle -1.04974e-14 -1.63587e-15 0
lhumerus -46.6454 -10.7384 94.003
lradius 49.2395 0 0
lwrist 15.1531 0 0
lhand 8.32055 8.98789 0
lfingers 7.12502 0 0
lthumb 33.5317 35.8743 0
rclavicle -1.04974e-14 -1.63587e-15 0
rhumerus -42.7561 1.16838 -69.0881
rradius 50.6012 0 0
rwrist 3.78396 0 0
rhand -21.923 -15.8624 0
rfingers 7.12502 0 0
rthumb 4.48201 -45.7768 0
108
root 7.54294 16.7348 -26.6421 1.29834 12.1722 -2.90731
lfemur -23.136 -2.15307 -12.9199
ltibia 37.1983 0 0
lfoot -17.2593 -7.79808 0
ltoes 25.0255 0 0
rfemur -42.141 -5.24673 1.93465
rtibia 88.1698 0 0
rfoot 32.5111 22.0898 0
rtoes 17.4554 0 0
lowerback 3.46224 1.06029 -0.431307
upperback -0.159797 1.43005 2.01416
thorax -2.15651 0.729735 2.24921
lowerneck -10.6735 -4.74801 2.13296
upperneck -0.440837 -6.58068 0.838365
head 1.61972 -3.25172 -0.392204
lclavicle -1.04235e-14 -1.19638e-15 0
lhumerus -46.5386 -10.8303 93.9636
lradius 49.2697 0 0
lwrist 15.1183 0 0
lhand 8.29438 8.93111 0
lfingers 7.12502 0 0
lthumb 33.5068 35.8228 0
rclavicle -1.04235e-14 -1.19638e-15 0
rhumerus -42.7169 0.963923 -68.8128
rradius 50.9191 0 0
rwrist 3.53521 0 0
rhand -21.3187 -15.8988 0
rfingers 7.12502 0 0
rthumb 5.06214 -45.7494 0
109
root 7.5574 16.7389 -26.6355 0.952984 12.042 -2.75866
lfemur -22.5546 -1.78663 -13.1142
ltibia 36.9626 0 0
lfoot -17.1781 -7.87103 0
ltoes 25.2183 0 0
rfemur -43.2271 -5.82764 2.89953
rtibia 86.9428 0 0
rfoot 31.5136 22.0836 0
rtoes 15.9066 0 0
lowerback 3.82503 0.975972 -0.565448
upperback 0.00208146 1.2975 1.97082
thorax -2.17785 0.662637 2.29811
lowerneck -10.7237 -4.6452 2.09553
upperneck -0.386218 -6.44212 0.856828
head 1.64902 -3.18156 -0.374561
lclavicle -1.03064e-14 -5.00729e-16 0
lhumerus -46.3697 -10.9757 93.9012
lradius 49.3177 0 0
lwrist 15.0632 0 0
lhand 8.25296 8.84124 0
lfingers 7.12502 0 0
lthumb 33.4674 35.7412 0
rclavicle -1.03064e-14 -5.00729e-16 0
rhumerus -42.6548 0.640295 -68.377
rradius 51.4224 0 0
rwrist 3.14146 0 0
rhand -20.3621 -15.9563 0
rfingers 7.12502 0 0
rthumb 5.9804 -45.706 0
110
root 7.57655 16.7444 -26.6268 0.495417 11.8697 -2.5617
lfemur -21.7843 -1.30113 -13.3717
ltibia 36.6502 0 0
lfoot -17.0706 -7.9677 0
ltoes 25.4737 0 0
rfemur -44.6661 -6.59729 4.17791
rtibia 85.3172 0 0
rfoot 30.1919 22.0754 0
rtoes 13.8546 0 0
lowerback 4.3057 0.864257 -0.743172
upperback 0.216556 1.12189 1.91341
thorax -2.20613 0.573738 2.3629
lowerneck -10.7903 -4.50899 2.04594
upperneck -0.313853 -6.25853 0.881291
head 1.68782 -3.08861 -0.351186
lclavicle -1.01513e-14 4.20942e-16 0
lhumerus -46.1458 -11.1683 93.8184
lradius 49.3812 0 0
lwrist 14.9903 0 0
lhand 8.19809 8.72216 0
lfingers 7.12502 0 0
lthumb 33.4152 35.633 0
rclavicle -1.01513e-14 4.20942e-16 0
rhumerus -42.5725 0.211516 -67.7996
rradius 52.0891 0 0
rwrist 2.61979 0 0
rhand -19.0948 -16.0326 0
rfingers 7.12502 0 0
rthumb 7.19702 -45.6486 0
111
root 7.59978 16.751 -26.6162 -0.0593978 11.6606 -2.32288
lfemur -20.8502 -0.712444 -13.6839
ltibia 36.2714 0 0
lfoot -16.9401 -8.0849 0
ltoes 25.7834 0 0
rfemur -46.4109 -7.53052 5.72799
rtibia 83.3462 0 0
rfoot 28.5894 22.0655 0
rtoes 11.3664 0 0
lowerback 4.88852 0.728798 -0.958669
upperback 0.476613 0.908947 1.84379
thorax -2.24041 0.465944 2.44147
lowerneck -10.871 -4.34383 1.9858
upperneck -0.226107 -6.03593 0.910952
head 1.73488 -2.97591 -0.322842
lclavicle -9.96327e-15 1.5385e-15 0
lhumerus -45.8744 -11.4019 93.7181
lradius 49.4582 0 0
lwrist 14.9018 0 0
lhand 8.13155 8.57778 0
lfingers 7.12502 0 0
lthumb 33.352 35.5019 0
rclavicle -9.96327e-15 1.5385e-15 0
rhumerus -42.4728 -0.308392 -67.0994
rradius 52.8976 0 0
rwrist 1.98724 0 0
rhand -17.5582 -16.1252 0
rfingers 7.12502 0 0
rthumb 8.67221 -45.5788 0
112
root 7.62645 16.7586 -26.6041 -0.6965 11.4206 -2.04863
lfemur -19.7777 -0.0364488 -14.0424
ltibia 35.8365 0 0
lfoot -16.7903 -8.21949 0
ltoes 26.1391 0 0
rfemur -48.4146 -8.60215 7.50796
rtibia 81.0828 0 0
rfoot 26.7492 22.0541 0
rtoes 8.50918 0 0
lowerback 5.55778 0.573249 -1.20613
upperback 0.775241 0.664426 1.76385
thorax -2.27978 0.342164 2.53168
lowerneck -10.9636 -4.15417 1.91675
upperneck -0.125348 -5.78031 0.945013
head 1.78891 -2.84649 -0.290296
lclavicle -9.74732e-15 2.82181e-15 0
lhumerus -45.5627 -11.6701 93.6029
lradius 49.5467 0 0
lwrist 14.8002 0 0
lhand 8.05514 8.41199 0
lfingers 7.12502 0 0
lthumb 33.2793 35.3514 0
rclavicle -9.74732e-15 2.82181e-15 0
rhumerus -42.3582 -0.905411 -66.2954
rradius 53.8259 0 0
rwrist 1.26088 0 0
rhand -15.7936 -16.2314 0
rfingers 7.12502 0 0
rthumb 10.3662 -45.4988 0
113
root 7.65594 16.767 -26.5906 -1.40093 11.1553 -1.74541
lfemur -18.5918 0.710983 -14.4388
ltibia 35.3556 0 0
lfoot -16.6247 -8.3683 0
ltoes 26.5323 0 0
rfemur -50.63 -9.78704 9.47604
rtibia 78.5802 0 0
rfoot 24.7145 22.0415 0
rtoes 5.35004 0 0
lowerback 6.29777 0.401263 -1.47974
upperback 1.10543 0.394065 1.67545
thorax -2.32331 0.205303 2.63143
lowerneck -11.0661 -3.94447 1.8404
upperneck -0.0139407 -5.49768 0.982674
head 1.84865 -2.70339 -0.254309
lclavicle -9.50856e-15 4.24073e-15 0
lhumerus -45.2181 -11.9667 93.4755
lradius 49.6445 0 0
lwrist 14.6879 0 0
lhand 7.97066 8.22868 0
lfingers 7.12502 0 0
lthumb 33.1989 35.1849 0
rclavicle -9.50856e-15 4.24073e-15 0
rhumerus -42.2315 -1.56552 -65.4065
rradius 54.8524 0 0
rwrist 0.457753 0 0
rhand -13.8426 -16.3489 0
rfingers 7.12502 0 0
rthumb 12.2392 -45.4103 0
